<svg width="87" height="68" viewBox="0 0 87 68" fill="none" xmlns="http://www.w3.org/2000/svg">
<mask id="mask0_1_163" style="mask-type:alpha" maskUnits="userSpaceOnUse" x="0" y="0" width="87" height="68">
<path d="M0 68H86.4609V0.944092H0V68Z" fill="#104660"/>
</mask>
<g mask="url(#mask0_1_163)">
<path d="M47.8352 27.256C45.4394 26.472 43.0519 25.6938 40.6777 24.9246C40.8446 20.9725 41.0274 16.9762 41.2273 12.934C41.4257 8.89283 41.609 4.89699 41.7759 0.943893C39.7429 2.42807 37.6989 3.91992 35.6444 5.41945C33.5899 6.91924 31.5464 8.41057 29.5126 9.89499C29.4105 12.9573 29.315 16.0288 29.228 19.1118C29.1407 22.1948 29.0463 25.2678 28.9428 28.3286C25.9131 24.1779 22.8367 19.9629 19.7132 15.6837C16.5908 11.4058 13.5144 7.19109 10.4842 3.0396C8.78983 4.27625 7.05301 5.54385 5.27396 6.84244C3.49489 8.14102 1.73682 9.4245 0 10.6921C5.59648 18.3595 11.2396 26.0906 16.9282 33.8841C22.6173 41.6784 28.2604 49.4098 33.8564 57.0764C35.5932 55.8088 37.3513 54.5255 39.1306 53.227C40.9096 51.9284 42.6462 50.6608 44.3405 49.4239C42.702 47.1792 41.0404 44.9028 39.3548 42.5936C37.6702 40.2854 36.0081 38.0085 34.3691 35.7627C37.5747 36.8647 40.8259 37.9821 44.1206 39.1148C45.3672 39.5441 46.6013 39.9685 47.8352 40.3929V39.2868V27.256Z" fill="#104660"/>
<path d="M84.5332 34.1345C83.2477 31.5909 81.4653 29.6377 79.1845 28.2734C76.903 26.9103 74.2676 26.2281 71.2778 26.2281C69.2328 26.2281 67.3314 26.5035 65.5746 27.0541C63.8173 27.605 62.2312 28.3788 60.8152 29.3748V19.974V10.5737H54.3647H47.8354V27.2561C49.7292 27.8758 51.627 28.4984 53.5343 29.1276C57.8522 30.5531 62.1163 31.9692 66.3259 33.3768C64.2499 34.8922 62.1744 36.4071 60.0989 37.922C58.0234 39.4369 55.9474 40.9523 53.8717 42.4672C51.8789 41.7829 49.8625 41.0898 47.8354 40.3927V67.9999H54.3647H60.8152V56.5146V45.0293C60.8152 42.7749 61.3919 41.0442 62.5458 39.8378C63.6993 38.6321 65.325 38.028 67.4238 38.028C69.5205 38.028 71.0541 38.671 72.0253 39.9558C72.9954 41.2413 73.4805 42.9323 73.4805 45.0293V56.5146V67.9999H80.01H86.4612V55.6494V43.2983C86.4612 39.7328 85.8179 36.6782 84.5332 34.1345Z" fill="#104660"/>
</g>
</svg>
