<svg width="143" height="111" viewBox="0 0 143 111" fill="none" xmlns="http://www.w3.org/2000/svg">
<mask id="mask0_1_269" style="mask-type:alpha" maskUnits="userSpaceOnUse" x="0" y="0" width="143" height="111">
<path d="M0.471191 110.747H142.249V0.789795H0.471191V110.747Z" fill="#9CCE4D"/>
</mask>
<g mask="url(#mask0_1_269)">
<path d="M78.9109 43.936C74.9824 42.6502 71.0673 41.3742 67.1741 40.1128C67.4478 33.6323 67.7475 27.0791 68.0753 20.4508C68.4007 13.8241 68.7012 7.27179 68.9749 0.789551C65.6412 3.22329 62.2895 5.66961 58.9205 8.12852C55.5516 10.5879 52.2007 13.0333 48.8658 15.4675C48.6983 20.489 48.5417 25.5256 48.399 30.5811C48.2559 35.6366 48.101 40.6757 47.9314 45.6947C42.9632 38.8884 37.9186 31.9768 32.7968 24.9598C27.6767 17.9449 22.632 11.0336 17.663 4.22607C14.8847 6.25391 12.0367 8.33252 9.1194 10.4619C6.2021 12.5913 3.3192 14.696 0.471191 16.7746C9.64827 29.3474 18.9017 42.0248 28.2299 54.8046C37.5589 67.5857 46.8124 80.2635 55.9886 92.8351C58.8366 90.7564 61.7194 88.6522 64.6371 86.5228C67.5544 84.3934 70.402 82.3148 73.1804 80.2866C70.4935 76.6057 67.7689 72.8729 65.0049 69.0863C62.2424 65.3014 59.517 61.5677 56.8293 57.8852C62.0859 59.6922 67.4172 61.5244 72.8198 63.3819C74.864 64.0858 76.8876 64.7817 78.9109 65.4777V63.6639V43.936Z" fill="#9CCE4D"/>
<path d="M139.088 55.2152C136.98 51.0442 134.057 47.8414 130.317 45.6041C126.576 43.369 122.254 42.2503 117.352 42.2503C113.998 42.2503 110.88 42.702 108 43.6049C105.118 44.5082 102.517 45.7771 100.195 47.4103V31.9949V16.5803H89.6178H78.9111V43.936C82.0165 44.9523 85.1285 45.9731 88.2561 47.0049C95.3365 49.3425 102.329 51.6645 109.232 53.9728C105.827 56.4577 102.424 58.9418 99.0206 61.4259C95.6173 63.91 92.2131 66.3949 88.8093 68.879C85.5416 67.757 82.2352 66.6203 78.9111 65.4773V110.747H89.6178H100.195V91.9138V73.0803C100.195 69.3836 101.141 66.5456 103.033 64.5673C104.924 62.5903 107.59 61.5997 111.032 61.5997C114.47 61.5997 116.985 62.6541 118.577 64.7608C120.168 66.8688 120.964 69.6417 120.964 73.0803V91.9138V110.747H131.671H142.249V90.495V70.242C142.249 64.3952 141.194 59.3863 139.088 55.2152Z" fill="#9CCE4D"/>
</g>
</svg>
